<svg xmlns="http://www.w3.org/2000/svg" viewBox="0 0 120 120">
  <rect width="120" height="120" rx="24" fill="#1a1612"/>
  <path d="M60 60 C60 48, 72 36, 84 36 C96 36, 108 48, 108 60 C108 84, 84 108, 60 108 C24 108, 0 84, 0 48 C0 12, 36 -12, 72 -12"
        stroke="#5a8a5c" stroke-width="7" fill="none" stroke-linecap="round" opacity="0.9"/>
  <path d="M60 60 C60 54, 66 48, 72 48 C78 48, 84 54, 84 60 C84 72, 72 84, 60 84 C42 84, 24 66, 24 48 C24 24, 48 6, 72 6"
        stroke="#7db87f" stroke-width="4" fill="none" stroke-linecap="round" opacity="0.6"/>
  <circle cx="60" cy="60" r="6.5" fill="#5a8a5c"/>
</svg>
